<?xml version="1.0" standalone="no"?>
<!DOCTYPE svg PUBLIC "-//W3C//DTD SVG 20010904//EN"
 "http://www.w3.org/TR/2001/REC-SVG-20010904/DTD/svg10.dtd">
<svg version="1.0" xmlns="http://www.w3.org/2000/svg"
 width="171.000000pt" height="169.000000pt" viewBox="0 0 171.000000 169.000000"
 preserveAspectRatio="xMidYMid meet">

<g transform="translate(0.000000,169.000000) scale(0.100000,-0.100000)"
fill="#000000" stroke="none">
<path d="M525 1539 c-176 -77 -325 -145 -332 -151 -17 -13 -17 -53 -1 -66 7
-5 84 -37 171 -70 l157 -60 0 73 c0 55 4 78 18 95 54 67 442 81 578 21 l44
-20 0 -85 c0 -47 3 -86 8 -86 4 0 43 14 87 30 44 16 83 30 88 30 4 0 7 -51 7
-113 0 -99 -2 -114 -19 -124 -28 -17 -32 -49 -9 -78 23 -30 49 -32 71 -7 23
25 21 68 -3 85 -19 13 -20 23 -18 132 l3 118 57 21 c69 26 81 36 76 67 -2 18
-18 32 -58 52 -52 26 -600 277 -603 277 -1 -1 -146 -64 -322 -141z"/>
<path d="M642 1375 c-35 -8 -70 -19 -78 -26 -12 -9 -14 -80 -14 -412 l0 -400
64 -121 c126 -237 223 -410 233 -413 5 -2 73 117 150 264 l141 268 -1 402 c-1
268 -6 406 -13 413 -37 37 -352 53 -482 25z m48 -520 l0 -224 -30 -34 c-17
-19 -39 -37 -50 -40 -20 -5 -20 0 -20 259 l0 264 50 0 50 0 0 -225z m270 -4
l0 -229 -30 -31 c-40 -39 -87 -48 -134 -26 -61 29 -66 49 -73 295 l-6 220 121
0 122 0 0 -229z m140 -31 c0 -289 0 -287 -62 -231 l-33 29 -3 231 -3 231 50 0
51 0 0 -260z m-329 -279 c19 -12 51 -21 72 -21 45 0 107 30 125 60 l13 21 21
-26 c12 -15 38 -35 59 -44 l37 -16 -86 -158 -87 -158 -79 3 -79 3 -84 150
c-45 83 -83 153 -83 156 0 3 15 13 34 22 19 8 42 27 53 41 17 25 18 25 34 6 9
-10 31 -28 50 -39z"/>
<path d="M907 983 c-4 -3 -7 -48 -7 -100 0 -68 3 -93 13 -93 9 0 12 25 10 96
-1 96 -4 110 -16 97z"/>
<path d="M907 743 c-11 -10 -8 -43 3 -43 6 0 10 11 10 25 0 26 -2 29 -13 18z"/>
</g>
</svg>
